<?xml version="1.0" encoding="utf-8"?>
<!-- Generator: Adobe Illustrator 27.2.0, SVG Export Plug-In . SVG Version: 6.00 Build 0)  -->
<svg version="1.1" id="Warstwa_1" xmlns="http://www.w3.org/2000/svg" xmlns:xlink="http://www.w3.org/1999/xlink" x="0px" y="0px"
	 viewBox="0 0 828 117" style="enable-background:new 0 0 828 117;" xml:space="preserve">
<style type="text/css">
	.st0{fill:#338C23;}
</style>
<path d="M486.4,34.6c0.7-0.1,1.5-0.2,2.2-0.2c-1.1,12.2-0.5,25-0.3,37.2c0,3.3,0.1,6.6,0.2,9.9c0,1.5,0.4,3.3-0.2,4.6l-10.8,0.1
	l-1.8-0.2c-0.6-3.8-0.1-8.2-0.1-12c0-8.5,0-16.9,0-25.4c0-3,0.6-7.7-0.6-10.5C478.4,37.7,483.1,36.1,486.4,34.6z"/>
<path d="M412.9,34.2h0.9c-0.3,4-0.1,8.4-0.2,12.5c-0.1,5.5-0.3,11-0.2,16.5c0,3.5,0.9,20.4-0.2,22.4l-0.4,0.7l-12.1,0.1
	c-0.3-0.3-0.3-0.6-0.3-1c-0.6-11.8,0.1-23.8,0.1-35.6c0-2.8,0.6-9.1-0.8-11.4C404,37.5,408.7,35.6,412.9,34.2z"/>
<path d="M341.2,34.6c0.7,0,1,0,1.7,0.4c0,2.7,0,5.5,0.2,8.2c0.1,1.1,0.3,2.8-0.1,3.9l-0.3,0.6c-1.6,0.2-3.3,0.3-4.8,0.9
	c-5.1,1.9-9.5,6.4-10.8,11.8c-0.5,2.1-0.3,4.7-0.3,6.9c0,4.3,0,8.5,0,12.8c0,1.5,0.4,4.2-0.2,5.6l-0.4,0.7l-11.1,0.1
	c-0.7,0-0.9,0-1.4-0.4c0-5.5,0-11,0-16.5c0-4.7-0.2-9.3,1.1-13.8c1.3-4.6,3.8-8.4,6.9-11.9C327,37.9,333.7,35,341.2,34.6z"/>
<path d="M177.2,86.1l-1.9,0.1c-4,0.1-8.5,0.1-12.4,0.1l0.4-0.8c0.4-1.1,0.2-3.2,0.2-4.4c0-4.1-0.1-8.1-0.1-12.2
	c0-15.6,0.6-31.5,0-47.2c0-0.7,0.1-1,0.1-1.8c2.4-0.7,4.8-1.6,7.4-2.5c1.9-0.6,4.1-1.5,6.1-2.1c0.2,0.4,0.4,0.8,0.5,1.2 M176.8,23.6
	c-0.4-0.7-0.2-2.3-0.2-3.1c-0.7,8.1-0.2,16.6-0.2,24.7c0.1,10.4-0.1,20.8-0.2,31.2c0,2.3,0,4.5,0,6.8c0,0.4,0.1,1.7,0,2
	c-0.1,0.3-0.6,0.7-0.8,1l1.9-0.2"/>
<path d="M177.2,86l-1.9,0.2c0.2-0.3,0.7-0.7,0.8-1c0.1-0.3,0-1.6,0-2c0-2.3,0-4.5,0-6.8c0.1-10.4,0.3-20.8,0.2-31.2
	c-0.1-8.2-0.5-16.6,0.2-24.7c0,0.8-0.1,2.4,0.2,3.1"/>
<path class="st0" d="M683.9,13.2l1,0.2c0.3,15.6,0.1,31.1,0.1,46.7c0,5.8,0,11.6,0,17.4c0,2.8,0.5,6.6-0.6,9.1l-12.8,0
	c-0.5-2.5-0.4-5.3-0.4-7.9c-0.1-5.9,0.1-11.7,0.2-17.5c0.1-11-0.1-21.9-0.1-32.9c0-2.5,0-4.9,0-7.4c0-0.9,0.1-2.2-0.3-3l-0.3-0.6
	L683.9,13.2z"/>
<path class="st0" d="M737.8,56.3c0,6.1,0.4,12.1-2.3,17.7c-2.6,5.5-8.1,9.7-13.7,11.7c-4.9,1.7-11.8,1.2-16.5-1.1
	c-5.6-2.7-9.9-7.3-12-13.2c-0.7-2-1-4-1.1-6.1c-0.2-3-0.7-28.2,0.2-29.9l2-0.1l10.6-0.1c1.1,2.1,0.7,5,0.8,7.3c0,4.9,0,9.8,0.1,14.6
	c0,3.6-0.5,8,1,11.2c1,2.1,2.7,3.6,4.9,4.3c2,0.7,5.1,0.6,7.1-0.3c2.1-1,3.9-3,4.7-5.2c0.9-2.5,0.6-5.8,0.6-8.4c0-4.9,0-9.9,0-14.8
	c0-2,0.5-6.1-0.4-7.9l-0.4-0.7l13.8-0.1l0.3,0.5l0.2,0.5c0.3,0.9,0.1,2.5,0.2,3.5"/>
<path d="M295.9,82.1c0,1.1,0.2,2.5-0.3,3.5l-0.4,0.7l-13.4,0l0.3-0.4l0.2-0.6c0.4-2.7,0-5.9,0.1-8.6c0.1-5.1,0.1-10.3-0.1-15.4
	c-0.4-10,0.4-20.3-0.1-30.3c0-0.9-0.2-1.6-0.8-2.3l-19.4-0.2l0.3-0.6l0.2-1.3c0-1.9,0.2-11.7-0.6-11.4c5.5,0,12.1,0,17.5,0.1
	c11.8,0,23.6-0.1,35.3,0.2l0,0c1.2,0.1,1.1,4.6,1,7.5c0,1.2-0.1,4.4-0.5,5.5l-20,0.1c0.2,0.3,0.4,0.7,0.6,1.1
	c0.5,1.7,0.1,5.4,0.1,7.3c0,7.2,0,14.5-0.1,21.7"/>
<path d="M454,56.5c-0.3-3.3-2.1-4.6-4.2-5.6c-2.4-1.2-5.6-1.6-8.2-0.7c-2.6,0.9-4.9,3.6-5.8,6.3c-0.7,2.2-0.5,4.9-0.5,7.2
	c-0.1,5.3-0.2,10.7-0.1,16c0,1.9,0.5,4.7-0.3,6.3l0,0.1l-13.1,0.1l0.3-0.4l0.2-0.4c0.5-1.4,0.3-48.1-0.3-49.4l-0.3-0.7
	c1.8-0.5,12.3-0.8,13.7-0.2c0.7,0.3,0.2,1.6,0.5,2.3c0.2,0.6,4.8-0.8,5.7-1c4.4-0.8,9.2,0,13.2,1.9c5.8,2.7,9.9,8.3,12,14.3
	c0.8,2.2,1.3,31.6,0.7,32.8l-0.4,0.7l-13.1,0.1l0.3-0.4l0.2-0.5"/>
<path d="M529.4,59.4c-0.2-2.8-1.4-5.9-3.6-7.8c-1.6-1.4-4.2-2-6.3-1.8c-10.5,0.8-9.2,10.4-9.1,18c0.1,4.1,0,8.3,0,12.4
	c0,1.9,0.4,4.3-0.9,5.9l0,0l-12.8,0.1l0.4-1c0.6-1.4,0.4-48.1-0.1-49.2l-0.3-0.7c3.6-0.7,9.2-0.7,12.9-0.2c1.9,0.2,0.5,1.6,1.5,2.8
	l1.7-0.5c6.2-1.8,12.5-1.4,18.2,1.7c5,2.7,9.6,8.6,11.2,14c0.9,3.2,0.6,6.5,0.6,9.7c0,4.5,0,9,0,13.5c0,2.1,0.6,7.3-0.4,9.1
	l-0.4,0.7l-13.1,0.1l0.4-0.5l0.3-0.6"/>
<path d="M154.4,26c-0.5,2.3-3.7,6-5.1,8.1c-6.4,9.8-12.9,19.5-19.7,29c-1.9,2.6-3.5,5.5-5.4,8c-0.4,0.5-1,1-1.6,1.4l33,0.3l0,0.5
	c-1.3,2.7-3.6,5.2-5.4,7.6c-1.1,1.5-2.5,4.1-4.2,5l0,0l-41.8,0.1l0.1-10.5c7.3-11.2,14.8-22.1,22.2-33.2c2.7-4,6-8,8.3-12.2
	c0.3-0.5,0.3-1,0.3-1.6l-30.1,0l9.9-13.3l39.7,0.1l0.3,0.4l0,0.1l0.3,0.5"/>
<path class="st0" d="M637.8,14.4c9.8-0.6,18.7,3.4,25.9,9.8c1.6,1.4,4.6,4.2,4.8,6.3l0,0.1c-0.3,0.9-2,1.7-2.8,2.3
	c-2.8,1.9-5.6,4-8.7,5.5c-0.1-1.1-1.2-2.1-1.9-2.8c-4.5-4.5-10-6.9-16.4-6.9c-5.3,0-11.3,2.7-15,6.4c-4.3,4.3-6.3,9.6-6.2,15.6
	c0,5.9,1.9,11.4,6.2,15.7c4.2,4.1,10,6.4,15.8,6.3c8.1,0,12.7-3.8,18.1-9.2c2.8,1.1,5.2,3.2,7.7,4.8c1,0.6,2.8,1.5,3.5,2.4l0.3,0.4
	c-0.2,1-0.4,1.3-1,2.1c-5.7,7-14.6,12.5-23.7,13.4c-10,1-19.4-0.8-27.3-7.3c-7.4-6-12.7-14.6-13.7-24.2c-1.1-10.3,1.8-19.7,8.3-27.7
	C617.9,19.2,627.7,15.4,637.8,14.4z"/>
<path d="M363.6,35.4c3.6-0.3,7-0.2,10.5,0.6c1.5,0.3,4.2,1.7,5.3,1.5c-0.1-0.9-0.2-1.4,0.2-2.2l12.3-0.1l0.3,0.5l0.3,0.6
	c0.4,1.3-0.2,49-0.3,49.2l-0.4,0.7l-12.1-0.1c-0.1-0.8-0.1-1.1-0.7-1.7c-1.7,0.8-3.2,1.3-5,1.6l-1,0.3c-6.4,1.4-14.4,0-19.9-3.5
	c-5.4-3.5-9.5-9.4-10.9-15.7c-1.4-6.5-0.4-14.2,3.2-19.8C349.9,40.3,355.8,37.1,363.6,35.4z M364.5,48.8c-4.2,1.6-7,3.6-9,7.9
	c-1,2.3-0.9,5.7,0,8.1c1.2,3.1,3.7,6.3,6.8,7.7c1.7,0.8,4.9,1.6,6.7,0.9l0.1,0c3.9-0.7,6.5-2.4,8.8-5.7c1.9-2.8,2.2-5.9,1.6-9.2
	c-0.5-2.9-2.4-5.8-4.8-7.4C371.7,48.9,368.3,48.3,364.5,48.8z"/>
<path class="st0" d="M756.7,12.3l1.1,0.6c0.2,5.4,0,10.9,0,16.3c0,2.8,0.5,6-0.1,8.7c7.9-3.1,15.4-4.1,23.5-0.7
	c5.8,2.4,10.8,7.3,13.2,13.1c2.7,6.7,2.9,13.8,0,20.5c-2.2,5.2-6.1,10.4-11.5,12.6c-0.5,0.5-1,0.8-1.7,1.1c-6,2.7-13.9,3-20.1,0.7
	c-8.9-3.4-15.3-11.7-16.6-21.2c-0.7-4.8-0.2-10.1-0.2-14.9c0-7.5,0-15,0-22.5c0-3,0.6-7.6-0.6-10.3
	C747.9,15.9,752.7,13.8,756.7,12.3z M767.1,48.8c-3.7,1.6-6.8,3.8-8.3,7.7c-1.2,3-0.8,6.6,0.4,9.5c1.2,2.7,3.5,5.3,6.3,6.4
	c1.8,0.7,4.9,1.3,6.8,0.5c3.5-0.4,5.8-1.9,8-4.7c1.9-2.4,2.8-5.6,2.4-8.6c-0.4-3.6-2.5-6.7-5.3-8.8c-3-2.3-6.4-2.5-10-2L767.1,48.8z
	"/>
<path d="M563.4,89.2c2.8,1.6,6.1,3.6,9.5,3.1c3.4-0.4,6.6-2,8.7-4.7c0.9-1.1,2-2.6,1.8-4.1c-0.8,0.9-2.9,1.2-4.1,1.5
	c-7.5,1.5-14.7,1.2-21.3-3.2c-5.7-3.8-9.4-10.1-10.8-16.7c-1.2-6-0.1-12.9,3.3-18.1c4.3-6.5,10-10.1,17.5-11.6
	c6-0.8,11.9,0.2,17.1,3.3c5.4,3.1,10,9.3,11.7,15.3c1.5,5.5,0.8,12.1,0.8,17.8c0,3.9,0.3,8.2-0.3,12c-0.6,3.3-1.8,6.8-3.5,9.7
	c-3.3,5.7-9.4,9.7-15.7,11.3c-6.1,1.6-12.8,0.7-18.3-2.4c-2.1-1.2-3.8-2.7-5.8-3.9l0.5-0.2 M571.3,48.4c-3.6,0.7-7.1,2.1-9.2,5.2
	c-1.9,2.8-2.5,5.7-1.9,9c0.5,2.8,2.4,6.3,4.8,7.9c2.2,1.5,4.5,2.1,7.1,2.2c4-0.5,7-1.6,9.5-4.8c1.7-2.2,2.8-5.5,2.5-8.2
	c-0.5-3.5-1.9-6.5-4.7-8.7C576.9,49,574.4,48.4,571.3,48.4z"/>
<path d="M244.1,63.2c-0.1-5.1,0.3-10.6-0.4-15.6c-0.1-0.8,0-0.8-0.5-1.4l-0.4,0.8c-3.1,5.3-6.4,10.5-9.4,15.8
	c-1.7,2.9-3.9,8.6-6.5,10.6l-8.9,0l0-0.3l0-0.1l0-0.4c-0.2-0.9-1.1-2.1-1.5-2.9c-1.4-2.4-2.8-4.8-4.2-7.2c-2.9-4.9-5.5-10.4-8.8-15
	c-0.7-0.8-0.9-1.4-1.4-1.3l0,1.1c-0.2,8.4-0.2,16.7-0.3,25c0,3,0.1,6.1,0.1,9.1c0,1.5,0.2,3.4-0.4,4.8l-14.1,0
	c0.2-0.2,0.3-0.5,0.4-0.8c0.5-1.2,0.2-3.4,0.2-4.7c0-4.2,0-8.4,0-12.5c0-16.9,0.6-34-0.1-50.8c0-0.6-0.3-1.4-0.5-2
	c3.6-0.2,8.7-0.2,12.9-0.1l0.6,0.5c1.6,1.5,3,4.8,4.1,6.7c3.4,6.1,6.6,12.2,10,18.3c1.8,3.2,3.8,6.4,5.6,9.6
	c0.7,1.3,1.7,2.1,1.8,3.7l0.7-0.6c1.1-1,1.8-2.8,2.5-4.1c1.5-2.8,3.1-5.5,4.7-8.3c4.7-8.2,9.8-16.2,14.1-24.6
	c0.2-0.4,0.3-0.9,0.3-1.3l12.5,0.2c0.2,0.2,0.4,0.5,0.5,0.8c0.4,1.1,0,3,0,4.2c-0.1,3.4-0.2,6.8-0.2,10.2c-0.2,14.1,0,28.1,0,42.2
	c0,2.8,0.1,5.6,0.2,8.4c0.1,1.6,0.3,3.4-0.3,4.9l-13.9,0c0.2-0.4,0.5-0.8,0.6-1.2c0.3-0.9,0.1-2.4,0.1-3.4"/>
<path d="M88.5,15.4l15,0l-6.8,21.1L80.6,86.3l-12,0.1L55.4,41.1L42.5,86.3l-12,0L7.8,15.4l14.9,0.1l13.8,44l12.6-44.1l13.1,0.1
	l12.6,43.8L88.5,15.4z"/>
</svg>
